<?xml version="1.0" encoding="utf-8"?>
<!-- Generator: Adobe Illustrator 26.0.2, SVG Export Plug-In . SVG Version: 6.00 Build 0)  -->
<svg version="1.1" id="Calque_1" xmlns="http://www.w3.org/2000/svg" xmlns:xlink="http://www.w3.org/1999/xlink" x="0px" y="0px"
	 viewBox="0 0 500 500" style="enable-background:new 0 0 500 500;" xml:space="preserve">
<style type="text/css">
	.st0{fill:#00CE84;}
	.st1{fill:#FFFEAD;}
	.st2{fill:#8DD4FB;}
	.st3{fill:#FFFFFF;}
	.st4{fill:#F0DED3;}
	.st5{fill:#C8C1CB;}
</style>
<g>
	<g>
		<path d="M250.3,13.5c32,0,63,6.3,92.2,18.6c28.2,11.9,53.6,29,75.3,50.8s38.9,47.1,50.8,75.3c12.4,29.2,18.6,60.2,18.6,92.2
			s-6.3,63-18.6,92.2c-11.9,28.2-29,53.6-50.8,75.3s-47.1,38.9-75.3,50.8c-29.2,12.4-60.2,18.6-92.2,18.6s-63-6.3-92.2-18.6
			c-28.2-11.9-53.6-29-75.3-50.8s-38.9-47.1-50.8-75.3c-12.4-29.2-18.6-60.2-18.6-92.2s6.3-63,18.6-92.2
			c11.9-28.2,29-53.6,50.8-75.3S129.8,44,158,32.1C187.2,19.7,218.3,13.5,250.3,13.5 M250.3,0.5c-138.1,0-250,111.9-250,250
			s111.9,250,250,250s250-111.9,250-250S388.3,0.5,250.3,0.5L250.3,0.5z"/>
		<path class="st0" d="M487.3,250.5c0-32-6.3-63-18.6-92.2c-11.9-28.2-29-53.6-50.8-75.3S370.7,44,342.5,32.1
			c-29.2-12.4-60.2-18.6-92.2-18.6s-63,6.3-92.2,18.6c-28.2,11.9-53.6,29-75.3,50.8S43.8,130,31.9,158.2
			c-12.4,29.2-18.6,60.2-18.6,92.2s6.3,63,18.6,92.2c11.9,28.2,29,53.6,50.8,75.3s47.1,38.9,75.3,50.8
			c29.2,12.4,60.2,18.6,92.2,18.6s63-6.3,92.2-18.6c28.2-11.9,53.6-29,75.3-50.8s38.9-47.1,50.8-75.3
			C481,313.5,487.3,282.5,487.3,250.5z"/>
	</g>
	<path class="st1" d="M86.1,159c0.7,1,1.4,1.8,2.3,2.7c-14.8,26.9-22.7,57.3-22.7,88.8c0,49.3,19.2,95.6,54.1,130.5
		C154.6,415.8,201,435,250.3,435c49.3,0,95.6-19.2,130.5-54.1c34.9-34.9,54.1-81.2,54.1-130.5c0-40.4-12.9-78.7-36.7-110.5
		c2.3-4.2,4.6-8.6,6-13.4c0.1,0.1,0.2,0.2,0.2,0.3c0.2-0.8,0.4-1.5,0.5-2.3l0.2-0.7c0.2-1.1,0.1-2.1-0.3-3.1
		c-0.1-0.6-0.4-1.2-0.7-1.9c-0.1-0.1-0.2-0.3-0.2-0.4c-1.9-3-7.6-5.8-11.6-5.8c-1.1,0-2.2,0.2-3.2,0.6c0.2-0.5,0.3-0.9,0.5-1.3
		c-0.2,0.1-0.3,0.1-0.5,0.2c0.2-0.6,0.4-1.2,0.6-1.7c0.1,0.1,0.2,0.2,0.3,0.3c0.6-1.5,1-2.8,1.4-3.8c2.1-5.7,3.2-8.6,3.7-10.2
		c0.7-1.2,0.9-2.6,0.6-4l-0.1-0.4c-0.7-2.5-1.5-4.7-5.3-6.4c-0.7-0.4-1.3-0.6-1.8-0.7c-1.4-0.5-2.9-1-4.6-1c-1.6,0-3,0.4-4.2,1.2
		c-2,1.3-3.5,3.8-9.3,15.7c-0.1,0.2-0.2,0.4-0.3,0.6c-0.1-0.1-0.3-0.2-0.4-0.3c-0.8,1.6-1.6,3.3-2,4c-0.1,0-0.4-0.1-0.5-0.2
		c-0.5-0.2-1.1-0.4-1.8-0.5c-0.6-0.1-1.2-0.2-1.8-0.2c0,0-0.1,0-0.1,0c-32.2-25.1-71.7-38.7-113.2-38.7c-40.5,0-79.1,13-110.9,37
		c0.1-2.3-0.7-4.4-2.2-6.1c-0.1-0.1-0.1-0.1-0.2-0.2c-0.2,0.2-0.4,0.3-0.7,0.5c-1.7-1.4-3.9-2.3-6.3-2.3c0,0,0,0-0.1,0
		c-0.2,0-0.4,0-0.6,0c-7.5,0.1-16.7,1.3-24.4,8.4c-11.1,8.5-19.6,24.4-21.3,39.9c-0.2,1.7-0.5,3.7-0.5,5.9
		C83.2,152.4,83.9,155.9,86.1,159z M130,99.9C130.1,99.9,130.1,99.9,130,99.9C130.1,99.9,130,99.9,130,99.9
		C130,99.9,130,99.9,130,99.9z"/>
	<g>
		<g>
			<path d="M104.6,198.1c19.4-9.3,24.2-34,25.7-52.8c0.5-8.7,3.3-31.7,4.1-41.2c0.2-2.2-1.4-4-3.9-4.2c-0.1,0-0.1,0-0.2,0
				c-8.5,0-16.1,1.5-22.2,7.2c-10.8,8.1-18.1,23.3-19.5,36.6c-0.6,4.6-1.1,9.6,1.6,13.4c2.1,3.1,5.8,5.4,9.4,5.4c0.3,0,0.6,0,0.8,0
				c3.2-0.3,6.1-2.4,8.6-4.8c1.8-1.7,3.4-3.4,5.1-5.3c0.6-0.7,1.4-1.1,2.2-1.1c1.3,0,2.5,1,2.3,2.5c-0.3,1.6-0.6,3.1-0.8,4.2
				c-0.6,3.7-1.3,7.3-2.5,10.9c-1.6,4.9-4,9.6-7.4,13c-0.6,0.5-6.3,6.2-10.8,10.8c-1,1-1,2.6,0,3.5c0.7,0.6,1.6,1.4,2.5,2
				c0.6,0.5,1.3,0.8,2,0.8C102.6,199,103.6,198.6,104.6,198.1z M102.3,152.3c-1.9,1.6-3.7,2.2-5.2,2.2c-1.3,0-2.4-0.6-2.8-1.5
				c-0.3-0.7-0.2-1.5,0.2-2.3c3.9-7.4,7.7-25.4,15.8-35.3c2.7-3.3,6.3-5.4,8.9-5.4c2.8,0,4.4,2.3,2.5,8c-0.1,0-0.1-0.1-0.2-0.1
				C117.8,130.3,113.1,143.5,102.3,152.3z"/>
			<path d="M130,99.9c0,0,0.1,0,0.1,0C130.1,99.9,130.1,99.9,130,99.9C130,99.9,130,99.9,130,99.9z"/>
		</g>
		<path d="M168.9,113.5c-1.5-2.2-3.2-4-5.1-5.2c-1.5-1-3.2-1.5-5-1.5c-0.4,0-0.9,0-1.3,0.1c-2,0.2-2.3,1.8-3.1,3.5
			c-6.3,1.5-15.8,12-16.1,17.3c-1.1,2.6-1.7,5.2-2,7.8c-0.3,2.5-0.6,4.9-0.5,7.1c0,2.6,0.2,4.9,0.6,7.1c0.5,2.3,1.2,4.3,2.2,6
			c0.9,1.7,2.1,3.1,3.5,4.2c1.4,1.1,2.9,1.9,4.6,2.4c1.1,0.3,2.3,0.4,3.5,0.4c0.7,0,1.5,0,2.3-0.1c2.3-0.3,4.3-0.9,5.9-1.9
			c1.7-1,3.2-2.2,4.5-3.8c1.9-2.3,3.6-4.8,5.1-7.6c1.5-2.8,2.6-5.6,3.5-8.4c0.8-2.8,1.4-5.7,1.7-8.6c0.3-2.9,0.2-5.7-0.2-8.6
			c0,0,0.1,0,0.1,0c-0.3-1.1-0.5-2.2-0.7-3.1c-0.2-0.9-0.6-1.8-1-2.5c-0.4-0.7-0.7-1.5-1.1-2.2C169.9,114.9,169.4,114.2,168.9,113.5
			z M165.5,132.3c-0.1,0.1-0.2,0.1-0.3,0.2c-0.7,5.3-4.1,15.2-7.9,19.3c-1.5,1.6-3.5,3-5.8,3.6c-0.7,0.2-1.4,0.3-2.1,0.3
			c-1.1,0-2.2-0.2-3.1-0.8c-1.9-1-2.9-3-3.5-5c-0.5-1.9-0.8-3.8-0.8-5.8c0-2.6,1.8-9.3,2.6-11.9c0.4-1.4,0.9-2.7,1.6-4.1
			c0.7-1.4,1.4-2.7,2.1-3.9c0.7-1.3,1.6-2.3,2.5-3.2c0.9-0.9,1.8-1.7,2.8-2.2c1.4-0.3,3.1-0.8,4.5-1.4c0,0,0.6-0.1,1.5-0.1
			c1.5,0,3.6,0.2,4.2,1.4c0,0,1.2,3.3,1.5,4.9C165.9,126.4,165.9,129.4,165.5,132.3z"/>
		<path d="M215.7,184.3c20.6-5.9,29.5-29.4,34.1-47.6c2-8.5,8.6-30.7,11-39.9c0.6-2.2-0.7-4.1-3.1-4.8c-2.9-0.5-5.8-0.8-8.6-0.8
			c-5.2,0-10.1,1.1-14.6,4.2c-12,6.2-21.7,19.9-25.4,32.8c-1.4,4.5-2.7,9.3-0.7,13.5c1.7,3.7,5.3,6.8,9.1,7c0.2,0,0.5,0,0.7,0
			c2.9,0,5.9-1.5,8.6-3.3c2-1.3,4-2.8,5.9-4.4c0.6-0.5,1.2-0.7,1.9-0.7c1.5,0,2.8,1.2,2.3,2.9c-0.5,1.6-1.1,3-1.5,4
			c-1.2,3.5-2.5,7-4.3,10.3c-2.4,4.6-5.5,8.8-9.4,11.6c-0.7,0.4-7.2,5-12.4,8.8c-1.1,0.8-1.5,2.4-0.6,3.4c0.6,0.8,1.4,1.6,2.1,2.4
			c0.7,0.8,1.5,1.1,2.5,1.1C214,184.8,214.8,184.6,215.7,184.3z M221.2,138.8c-1.7,1-3.3,1.4-4.5,1.4c-1.8,0-3.1-0.8-3.4-2
			c-0.2-0.8,0.1-1.6,0.6-2.2c5-6.7,11.8-23.7,21.5-32.1c2.8-2.5,6.2-3.9,8.7-3.9c3.4,0,5.2,2.5,2.1,8.4c0,0-0.1-0.1-0.1-0.1
			C240,119.8,233.3,132,221.2,138.8z"/>
		<path d="M291.9,109.7c-2-0.7-2.5-1.2-2.2-2.4c1.6-6.1-7-10.9-12.9-11c-0.2,0-0.4,0-0.6,0c-0.4,0-0.8,0-1.1,0.2
			c-1.4,0.7-1.9,2-2.5,3.3c-6.6,12.5-14.7,24.3-18.1,38c-1.2,4.6-2.5,10.7-0.3,15.3c0.8,1.4,2.1,2.5,3.7,3.2c1.1,0.4,2.7,0.9,4,0.9
			c0.5,0,1-0.1,1.4-0.2c3.8-1.6,6.9-9.1,10.1-12.2c0.6,2,5.1,6.2,6.5,7c0.8,0.3,1.7,0.6,2.6,0.6c0.3,0,0.7,0,1-0.1
			c1.4-0.4,1.4-1.9,1-3c-0.5-1.3-0.9-2.5-0.9-3.9c0.1-1.6,0.6-3.1,1.1-4.6c2.1-6.4,4.6-12.5,7.5-18.7c0.1-0.1,0.1-0.2,0.2-0.2
			C294.1,118.3,298,111.7,291.9,109.7z M262.4,145.7c0,0,0.1,0,0.1,0c-0.4,0.3-0.9,0.9-1.3,0.9c-0.2,0-0.4-0.1-0.5-0.4
			c-0.6-1.4,0.8-3.9,1.4-5.3c2-5.7,16.2-32.8,18.7-34.2c0.3-0.2,0.6-0.2,0.9-0.2c1.4,0,3,1.3,3.4,2.4
			C285.7,110.7,269.5,139.3,262.4,145.7z"/>
		<path d="M337.1,116.4c1.6-4.6,1.5-11.3-1.5-14.2c-0.9-0.8-1.8-1.2-2.8-1.2c-9.3,0-21.4,33.1-27.4,38.3c-1.4-3.9,4.7-20.2,5.9-27.1
			c0.4-4-3-7.7-6-7.7c-2,0-3.9,1.6-4.5,5.8c-0.5,12.1-15.5,41.3,0.7,47c0.1,0,0.2,0,0.2,0c2,0,4-2.3,6.2-6.7
			c9.4-19.3,16.4-30.2,16.9-30.2c0,0,0,0,0,0c0.2,9.1-13.4,32.9-5.1,45.3c0.9,1.9,2.5,2.9,3.9,2.9c1.3,0,2.4-0.8,2.7-2.5
			c0-3.3-0.6-4,0.5-11.2c0.8-6,4-18.9,10.2-38.6C337,116.4,337,116.4,337.1,116.4z"/>
		<path d="M390.9,94.1c-0.5-2-0.6-2.6-2.8-3.6c-0.3-0.2-0.6-0.2-0.9-0.3c-1-0.4-2.2-0.8-3.3-0.8c-0.5,0-1,0.1-1.5,0.4
			c-1.8,1.1-9.3,17.8-10.7,19.9c-0.8,1.1-2,2-3.7,2c-0.3,0-0.7,0-1.1-0.1c-0.9-0.2-1.7-0.6-2.6-0.7c-0.3-0.1-0.5-0.1-0.8-0.1
			c-1.3,0-2.4,0.9-3.4,1.5c-1.5,0.9-2.8,1.9-4,2.9c-2.6,2.1-4.7,4.4-6.8,6.7c-3.8,4.1-7.1,8.5-10,13.1c-2.9,4.4-6.2,10.1-5.7,15.5
			c0.4,5.2,2.3,10.4,8.4,11.5c1,0.2,2,0.3,2.9,0.3c8.6,0,13.8-7.4,13.9-7.4c0,0-3.9,8.7-3.5,9.9c0.4,1.5,1.7,2.1,3,2.1
			c1.2,0,2.5-0.5,3.4-1.1c3.9-2.9,28.9-70.8,29-71.7C390.8,94.1,390.8,94.1,390.9,94.1z M344,156.6C344,156.6,343.9,156.6,344,156.6
			c-7.4-1.4,16-37.8,23.2-37.8c0.4,0,0.7,0.1,1,0.3C373,123,346.9,156.6,344,156.6z"/>
		<path d="M374,154.9c-1.4,3.4-2.6,6.9-3.7,10.4c-0.7,2.4,2.6,4.8,6,4.8c0.6,0,1.2-0.1,1.7-0.2c1.5-0.4,2.2-1.4,2.6-2.5
			c3.1-7.7,6.2-15.2,10-22.6c3.4-6.8,8-13.6,9.4-21.1c0.1-0.3,0.1-0.5,0.2-0.8c-0.1,0-0.1,0.1-0.2,0.1c0-0.5-0.1-1.1-0.4-1.7
			c-0.9-1.4-4.9-3.5-7.4-3.5c-0.5,0-1,0.1-1.3,0.3c-0.5,0.2-0.7,0.5-0.9,0.9c-3.9,5.5-6,11.7-8.5,17.7
			C378.9,142.7,376.6,148.8,374,154.9z"/>
	</g>
	<polygon class="st2" points="146.1,224.4 146.1,224.4 146.1,224.4 	"/>
	<path class="st2" d="M392.4,269.3l-0.2-0.3l-0.1-0.4c-9.4-31-35.1-52.3-76.5-63.2c-31.4-8.3-60.5-7.2-60.8-7.2l-0.2,0
		c-95.8,0-128.1,50.5-128.4,51l-0.3,0.4c-13.5,16.4-23.5,51.3-29.1,101.1c7.3,11.7,16,22.7,25.8,32.5h0c4,4,8.2,7.8,12.5,11.4
		c32.6,26.1,72.8,40.3,115.2,40.3c42.4,0,82.6-14.2,115.2-40.3c4.3-3.6,8.5-7.4,12.5-11.4c10.9-10.9,20.4-23.2,28.2-36.4
		C402.4,289.8,392.5,269.5,392.4,269.3z"/>
	<path d="M165.5,365l-0.1,0c-0.6,0-14.2-0.9-28-8.5c-12.9-7.1-28.4-21.7-28.7-50.5c-0.3-2.7-2-25.9,14.1-43.9
		c12-13.4,30.5-20.2,55.2-20.2c2.1-0.1,23.5-0.8,39.6,13.8c10.8,9.8,16.7,23.9,17.4,42.1c0.1,1,1.5,27.8-16.8,47.4
		c-12.1,13-29.7,19.6-52.5,19.8L165.5,365z M178,249.8c-22.3,0-38.8,5.9-49.2,17.5c-14.3,16-12.1,37.7-12.1,38l0,0.4
		c0.5,47.1,45.7,51.1,49,51.3c20.4-0.2,36.1-6,46.6-17.3c16-17.1,14.6-41.3,14.6-41.5c-0.7-16.1-5.6-28.3-14.8-36.6
		c-14.2-12.8-33.7-11.8-33.9-11.8L178,249.8z"/>
	<path class="st3" d="M128.7,267.3c-14.3,16-12.1,37.7-12.1,38l0,0.4c0.5,47.1,45.7,51.1,49,51.3c20.4-0.2,36.1-6,46.6-17.3
		c16-17.1,14.6-41.3,14.6-41.5c-0.7-16.1-5.6-28.3-14.8-36.6c-14.2-12.8-33.7-11.8-33.9-11.8l-0.2,0
		C155.7,249.8,139.1,255.7,128.7,267.3z"/>
	<path d="M163.6,294.8c0,0-4.7-10.4-17.6-9c0,0-17.8,4.3-17.8,19.9c0,0,1.3,13.9,15.1,16.4c0,0,16.9,2.5,21.7-7.6
		C165,314.5,171.5,303,163.6,294.8z M152.6,303.4c-2.5,4.3-6.6,0.7-6.6,0.7c-4-8.2,3.5-11.5,3.5-11.5
		C157.1,290.8,152.6,303.4,152.6,303.4z"/>
	<path d="M336.5,358.1c-8.8,0-15.2-1-15.9-1.1l-0.1,0c-21.6-4-36.3-38.6-37.3-40.9c-6.7-14.7-0.5-37.7-0.2-38.7l0.1-0.4
		c6.6-17.2,21.2-28.9,42.2-34.1c15.5-3.8,28.9-2.6,29.5-2.6c32.9,3,42.8,37.3,43.5,39.8c9.2,29.7-13.2,60.2-14.2,61.5l-0.2,0.2
		C372.2,355.4,351.1,358.1,336.5,358.1z M322,349.1c1.6,0.2,40,5.6,55.9-12.4c1.4-2,20.6-29.3,12.8-54.3l0-0.2
		c0-0.1-2.2-8.1-7.9-16.3c-7.4-10.6-17-16.5-28.5-17.6c-0.2,0-12.9-1.1-27.1,2.4c-18.4,4.5-30.6,14.3-36.3,28.9
		c-0.5,2.1-5.4,21.7-0.2,33.1l0.1,0.1c0,0.1,3.6,8.6,9.4,17.3C307.3,341.3,314.9,347.8,322,349.1z"/>
	<path class="st3" d="M390.7,282.5l0-0.2c0-0.1-2.2-8.1-7.9-16.3c-7.4-10.6-17-16.5-28.5-17.6c-0.2,0-12.9-1.1-27.1,2.4
		c-18.4,4.5-30.6,14.3-36.3,28.9c-0.5,2.1-5.4,21.7-0.2,33.1l0.1,0.1c0,0.1,3.6,8.6,9.4,17.3c7.3,11,14.9,17.5,21.9,18.8
		c1.6,0.2,40,5.6,55.9-12.4C379.3,334.8,398.4,307.5,390.7,282.5z"/>
	<path d="M385.2,292.3c0,0-2.8-13-22.5-5.9c0,0-14.9,2.3-10.1,20.6c0,0,7.3,16.6,22.8,11.8C375.4,318.7,391.4,312.5,385.2,292.3z
		 M373.4,301.9c-7.9,3.2-11.3-2.8-11.3-2.8c-2.3-7.2,5.3-9.7,5.3-9.7c3.7,0.3,7.9,2.8,7.9,2.8C379.3,297.3,373.4,301.9,373.4,301.9z
		"/>
	<path d="M285.9,354.3l-0.2-0.2c-0.2-0.3-4.9-5.8-9.9-10.2c1.7-3.4,1.8-6.4,1.9-6.5l0-0.2c0-2.2-0.9-4.2-2.6-5.8
		c-5.9-5.4-21.7-4.5-25.1-4.2c-5.2,0.2-9,1.9-11.3,5.2c-3.2,4.5-2,10-1.6,11.6c0.1,0.4,0.2,0.8,0.3,1.2
		c-12.6,10.2-12.5,24.3-12.5,25l0,0.2c0.3,4.7,2.4,7.4,4.1,8.9c2.6,2.2,5.7,2.7,7.5,2.8v11.2l0,0.4c0,0.3,0.4,3.3,2.1,6.2
		c2.4,4.1,6.4,6.4,11.2,6.4c0.2,0,0.3,0,0.5,0l0.3,0c2.1-0.2,5.4-1.2,8-3.5c2.3,2.5,5.5,3.6,8,3.6c8.1,0,11-5.4,11-9.1v-15.6
		c2.7-0.5,5.4-1.5,7.6-3.3l0.4-0.3l0.3-0.4C286.3,377.1,294.3,365.5,285.9,354.3z M245.2,337.1c1-1.4,3.3-1.7,5.1-1.8l0.2,0
		c8.4-0.7,17.6,0.4,19.1,2.1c-0.2,1.9-1.7,8.3-11.9,8.3c-0.2,0-0.3,0-0.5,0c-5.2-0.4-11-1.9-12.3-3.1l-0.1-0.5
		C244.6,341.3,244.2,338.6,245.2,337.1z M250,398.3C249.9,398.3,249.9,398.3,250,398.3c-4.3,0-5.2-3.9-5.4-5.2v-13
		c2.8-0.9,5.5-1.7,6.5-1.9c1.2-0.1,2.8-0.1,4.3,0v15C254.8,397.3,251,398.2,250,398.3z M266.8,398.4c-1.3-0.1-3.4-0.8-3.4-5v-12.9
		c1.7,0.5,3.9,1,6.4,1.4v15.5C269.7,397.3,269.5,398.3,266.8,398.4z M279.7,372.6c-4.3,3-13.3,0.6-16.5-0.6
		c-5.2-2.6-12.6-1.8-13.5-1.7l-0.6,0.1c-0.4,0.1-8.2,2.3-12.3,3.8c-0.7,0-1.9-0.2-2.7-0.9c-0.7-0.6-1.1-1.7-1.2-3.1
		c0-1,0.4-11.7,10.4-19.3c4.2,1.8,9.6,2.6,13.5,2.9l0.2,0c0.3,0,0.5,0,0.8,0c5.8,0,10-1.5,12.9-3.6c4.2,3.7,8.3,8.4,8.9,9.2
		C283.7,364.9,280.7,370.9,279.7,372.6z"/>
	<path class="st3" d="M269.7,381.8c-2.4-0.3-4.7-0.9-6.4-1.4v12.9c0,4.2,2.1,5,3.4,5c2.7,0,3-1.1,3-1.1V381.8z"/>
	<path class="st3" d="M249.9,398.3C249.9,398.3,249.9,398.3,249.9,398.3c1.1-0.1,4.9-1,5.5-5.2v-15c-1.6-0.1-3.2-0.1-4.3,0
		c-0.9,0.3-3.7,1.1-6.5,1.9v13C244.7,394.5,245.7,398.3,249.9,398.3z"/>
	<g>
		<path class="st4" d="M279.6,359.2c-0.6-0.7-4.7-5.4-8.9-9.2c-2.9,2.1-7,3.6-12.9,3.6c-0.3,0-0.5,0-0.8,0l-0.2,0
			c-3.9-0.3-9.3-1-13.5-2.9c-10,7.5-10.4,18.3-10.4,19.3c0.1,1.5,0.5,2.5,1.2,3.1c0.8,0.7,2,0.9,2.7,0.9c4.1-1.5,11.9-3.7,12.3-3.8
			l0.6-0.1c0.8-0.1,8.3-0.9,13.5,1.7c3.1,1.2,12.1,3.6,16.5,0.6C280.7,370.9,283.7,364.9,279.6,359.2z"/>
		<path class="st4" d="M257.8,345.7c2.3,0,4.1-0.3,5.5-0.8l-10.9,0.2c1.6,0.3,3.2,0.5,4.9,0.6C257.5,345.7,257.7,345.7,257.8,345.7z
			"/>
	</g>
	<path class="st5" d="M245.2,337.1c-1.1,1.5-0.6,4.2-0.4,5l0.1,0.5c1.3,1.2,7.1,2.7,12.3,3.1c0.2,0,0.3,0,0.5,0
		c10.2,0,11.7-6.4,11.9-8.3c-1.5-1.8-10.7-2.8-19.1-2.1l-0.2,0C248.6,335.3,246.2,335.7,245.2,337.1z"/>
	<path class="st2" d="M392.6,249.6c17-16.6,12.5-30,11.5-32.5c-0.9-0.9-3.8-3.1-8.2-0.8c-3.1,3.2-12.3,9.4-18.3,13.4
		C383.6,235.7,388.6,242.3,392.6,249.6z"/>
	<path class="st2" d="M138.4,225.2c-6-3.8-12.5-9.5-14.2-11l-0.2-0.2c-2.2-2.3-4.4-3.5-6.6-3.5c-2.2,0-3.9,1.2-4.6,1.7
		c-5.2,10.6,4.2,23.1,9.4,28.9C125.3,237.3,130.5,231.5,138.4,225.2z"/>
	<g>
		<path d="M131,93.8c2.8,0,5.4,1.1,7.2,3.1c1.5,1.7,2.3,3.8,2.2,6.1c31.8-24,70.3-37,110.9-37c41.5,0,80.9,13.6,113.2,38.7
			c0,0,0.1,0,0.1,0c0.6,0,1.2,0.1,1.8,0.2c0.7,0.1,1.3,0.3,1.8,0.5c0.2,0.1,0.4,0.1,0.5,0.2c0.5-1,1.7-3.4,2.7-5.4
			c0.9-1.8,1.6-3.3,2.3-4.7c-33.7-26.6-76.2-42.5-122.5-42.5C206,52.9,164.3,68.2,131,93.8C131,93.8,131,93.8,131,93.8
			C131,93.8,131,93.8,131,93.8z"/>
		<path d="M390.7,110.5c-0.2,0.6-0.4,1.1-0.6,1.7c0.6-0.2,1.2-0.4,1.8-0.5C391.5,111.3,391.1,110.9,390.7,110.5z"/>
		<path d="M405.1,126.6c-1.4,4.8-3.7,9.2-6,13.4c23.8,31.7,36.7,70.1,36.7,110.5c0,30.7-7.4,60.2-21.4,86.5
			c-4-48.8-12.4-68.1-13.8-71c-0.9-3.1-2-6-3.3-8.9c25.3-23.2,15.1-43.3,14.7-44.1l-0.2-0.4l-0.3-0.3c-6.2-7.4-15.3-4.9-19.2-2.6
			l-0.7,0.4l-0.5,0.6c-1.3,1.7-10.3,7.9-18.7,13.4c-13.9-11.7-32.1-20.6-54.2-26.5c-32-8.4-60.8-7.5-62.9-7.4
			c-52.1,0-85.9,14.7-105.1,27.1c-1.3,0.9-2.6,1.7-3.9,2.6c-4-1.9-11.2-7.6-15.7-11.7c-3.8-3.9-7.9-5.9-12.3-5.9c0,0,0,0,0,0
			c-6.2,0-10.2,4-10.6,4.5l-0.4,0.4l-0.3,0.5c-8.7,16,5.2,33.3,11.3,39.8c-9.3,13-20.8,39.6-27.7,94.2c-15.7-27.5-24-58.7-24-91.2
			c0-31.6,7.9-61.9,22.7-88.8c-0.8-0.8-1.6-1.7-2.3-2.7c-3.2-4.5-3.3-9.9-2.8-14.2c-19.4,30.6-30.6,66.8-30.6,105.7
			c0,109.1,88.5,197.6,197.6,197.6c109.1,0,197.6-88.5,197.6-197.6C448.8,203.6,432.5,160.5,405.1,126.6z M396.9,216.3
			c4.4-2.3,7.3-0.1,8.2,0.8c1.1,2.5,5.5,15.9-11.5,32.5c-1.2-2.1-2.4-4.2-3.8-6.2c4.4-4.2,7.6-9.7,7.6-9.7c1.7-9-3.9-5-3.9-5
			c-1.8,1.9-6.7,4.5-10.2,6.2c-1.5-1.8-3.1-3.5-4.8-5.1C384.6,225.8,393.8,219.5,396.9,216.3z M113.9,212.1c0.7-0.6,2.4-1.8,4.6-1.7
			c2.1,0,4.3,1.2,6.6,3.5l0.2,0.2c1.7,1.5,8.2,7.3,14.2,11.1c-1,0.8-1.9,1.5-2.8,2.3c-5.5-2.1-12.7-5.4-12.7-5.4
			c-7.3-6.4-6.5,0-6.5,0c-0.3,3.9,6.1,10.5,10.1,14.1c-1.7,1.8-3.1,3.5-4.2,4.8C118.1,235.2,108.7,222.7,113.9,212.1z M378.9,383.3
			c-4.6,4.6-9.4,8.9-14.3,12.9c-32.3,25.2-71.7,38.8-113.3,38.8c-42.9,0-83.6-14.6-116.4-41.3c-3.9-3.3-7.7-6.7-11.3-10.4h0
			c-9.8-9.8-18.5-20.8-25.8-32.5c5.6-49.7,15.7-84.7,29.1-101.1l0.3-0.4c0.3-0.5,32.6-51,128.4-51l0.2,0c0.3,0,29.4-1.1,60.8,7.2
			c41.4,10.9,67.2,32.2,76.5,63.2l0.1,0.4l0.2,0.3c0.1,0.2,10.1,20.5,13.8,77.6C399.3,360.1,389.8,372.4,378.9,383.3z"/>
	</g>
</g>
</svg>
